<svg width="515" height="637" viewBox="0 0 515 637" fill="none" xmlns="http://www.w3.org/2000/svg">
<path fill-rule="evenodd" clip-rule="evenodd" d="M237.796 0.492933C230.792 1.72693 218.249 6.39393 215.975 8.61193C215.248 9.32093 214.065 9.90093 213.346 9.90093C211.461 9.90093 200.485 20.6929 197.582 25.4009C192.498 33.6459 190.79 41.8779 190.856 57.8189C190.888 65.8389 191.356 74.6509 191.896 77.4009C192.435 80.1509 193.51 86.0009 194.284 90.4009C196.211 101.354 198.169 110.201 198.931 111.401C199.28 111.951 199.888 114.35 200.282 116.733C200.677 119.115 201.626 122.265 202.392 123.733C203.157 125.2 203.786 126.868 203.79 127.44C203.797 128.702 207.188 135.464 208.77 137.369C210.414 139.351 209.592 162.371 207.715 166.901C205.516 172.209 199.593 177.616 194.296 179.152C193.196 179.471 189.821 180.689 186.796 181.859C183.771 183.029 179.496 184.374 177.296 184.848C175.096 185.322 171.946 186.193 170.296 186.784C168.646 187.376 163.921 188.808 159.796 189.968C140.868 195.292 130.637 200.289 123.715 207.591C121.01 210.446 118.796 213.483 118.796 214.341C118.796 215.199 118.456 215.901 118.04 215.901C117.209 215.901 112.796 225.038 112.796 226.759C112.796 227.35 112.173 229.311 111.411 231.117C107.236 241.017 102.651 266.626 97.8401 306.901C97.2161 312.126 96.2171 319.101 95.6201 322.401C95.0231 325.701 94.1691 331.326 93.7241 334.901C92.6991 343.124 91.0821 351.1 89.2371 357.035C88.4441 359.584 87.7961 362.536 87.7961 363.594C87.7961 364.653 87.1351 366.392 86.3281 367.46C85.5201 368.527 84.8451 370.327 84.8281 371.46C84.8101 372.592 84.1351 374.392 83.3281 375.46C82.5201 376.527 81.8451 377.979 81.8281 378.686C81.7651 381.224 69.9821 401.187 64.8251 407.493C63.4341 409.194 61.6211 411.611 60.7961 412.866C59.9711 414.12 58.7341 415.734 58.0461 416.452C57.3591 417.17 56.7961 417.965 56.7961 418.218C56.7961 419.643 45.2671 430.239 40.6851 433.025C37.7211 434.826 35.0711 436.587 34.7961 436.937C34.5211 437.288 32.1581 438.815 29.5461 440.333C26.9331 441.85 24.7961 443.498 24.7961 443.996C24.7961 444.494 24.3041 444.901 23.7041 444.901C20.8871 444.901 8.54112 456.717 4.07812 463.682C-2.08888 473.308 -1.25988 483.024 6.55412 492.713C9.56512 496.447 10.2371 498.324 11.5591 506.713C13.6551 520.002 16.0551 525.659 22.3151 532.057C28.8741 538.761 28.0981 538.195 41.7961 546.262C56.0331 554.646 53.8301 553.46 73.6731 563.425C98.3941 575.839 102.825 577.901 104.776 577.901C105.752 577.901 107.111 578.576 107.796 579.401C108.481 580.226 109.704 580.901 110.514 580.901C111.324 580.901 113.182 581.525 114.642 582.287C120.231 585.205 130.799 589.901 131.779 589.901C132.342 589.901 134.482 590.801 136.535 591.901C138.587 593.001 140.836 593.901 141.531 593.901C143.028 593.901 143.24 597.509 141.796 598.401C141.246 598.741 140.796 600.165 140.796 601.566C140.796 602.967 139.446 605.818 137.796 607.901C135.342 611 134.796 612.625 134.796 616.835C134.796 623.617 137.659 627.696 143.022 628.553C145.122 628.889 147.082 629.555 147.377 630.032C148.875 632.456 175.508 629.95 208.296 624.3C231.069 620.376 235.935 620.335 250.796 623.942C261.76 626.603 264.594 627.215 269.296 627.938C272.046 628.361 275.563 629.201 277.111 629.804C278.659 630.407 281.555 630.901 283.545 630.901C285.536 630.901 289.669 631.537 292.73 632.314C302.234 634.726 321.321 636.289 345.796 636.657C374.51 637.09 383.781 635.716 389.989 630.107C395.611 625.029 395.942 619.886 391.323 609.401C390.597 607.751 388.979 604.039 387.728 601.151C386.477 598.263 385.081 595.901 384.625 595.901C384.169 595.901 383.796 595.324 383.796 594.619C383.796 593.915 381.546 591.247 378.796 588.691C374.251 584.466 373.939 583.9 375.368 582.472C376.232 581.608 377.791 580.901 378.834 580.901C379.876 580.901 382.206 580.271 384.012 579.502C387.321 578.092 392.917 575.925 400.296 573.196C404.442 571.663 407.557 570.384 414.18 567.498C416.317 566.567 420.817 564.9 424.18 563.794C427.544 562.688 431.49 561.135 432.95 560.342C434.41 559.549 436.307 558.901 437.166 558.901C438.025 558.901 440.206 558.271 442.012 557.502C443.818 556.732 447.321 555.341 449.796 554.41C483.485 541.735 502.796 526.811 502.796 513.45C502.796 510.673 503.641 508.731 506.102 505.856C514.115 496.495 516.86 482.563 512.931 471.192C509.102 460.111 499.946 448.769 489.626 442.322C485.157 439.531 474.435 429.063 467.133 420.362C462.161 414.438 460.39 412.392 452.963 403.989C449.846 400.463 445.622 395.288 443.576 392.489C441.53 389.691 439.498 386.951 439.061 386.401C437.654 384.631 431.335 375.466 430.098 373.401C429.439 372.301 427.076 368.397 424.848 364.726C422.619 361.055 420.782 357.455 420.764 356.726C420.747 355.997 420.072 354.527 419.264 353.46C418.457 352.392 417.796 350.883 417.796 350.105C417.796 349.327 416.446 346.691 414.796 344.246C413.146 341.801 411.796 339.023 411.796 338.073C411.796 337.123 411.204 335.458 410.481 334.374C409.758 333.289 408.366 329.476 407.388 325.901C406.41 322.326 404.977 317.923 404.203 316.117C403.429 314.311 402.796 312.295 402.796 311.636C402.796 310.498 400.062 303.05 397.147 296.25C396.404 294.517 395.796 292.507 395.796 291.783C395.796 291.06 395.168 288.653 394.401 286.434C393.634 284.216 392.307 279.926 391.452 276.901C388.025 264.774 383.513 251.009 381.783 247.401C381.255 246.301 380.392 242.926 379.865 239.901C378.192 230.312 376.83 224.649 375.922 223.508C375.437 222.899 374.704 221.276 374.293 219.901C373.881 218.526 372.251 215.466 370.67 213.101C369.089 210.736 367.796 208.445 367.796 208.01C367.796 206.155 357.347 196.467 352.796 194.102C351.421 193.388 348.946 192.067 347.296 191.166C343.515 189.103 328.251 184.94 324.384 184.918C322.782 184.909 318.957 184.184 315.884 183.308C312.811 182.432 308.521 181.207 306.353 180.584C304.184 179.962 300.359 177.816 297.853 175.816C291.621 170.842 289.781 164.987 289.839 150.314C289.878 140.566 290.142 138.974 292.312 135.401C301.148 120.85 305.785 104.017 307.74 79.4009C309.331 59.3629 305.383 31.0589 300.127 24.8219C299.395 23.9539 298.796 22.7989 298.796 22.2549C298.796 20.0379 287.927 9.85093 282.796 7.25893C271.648 1.62793 268.092 0.787933 253.796 0.409933C246.371 0.212933 239.171 0.250933 237.796 0.492933ZM344.796 324.201C344.796 325.466 345.281 326.986 345.874 327.579C346.466 328.171 347.331 330.174 347.795 332.029C348.83 336.167 354.245 350.966 355.662 353.53C356.231 354.559 358.551 359.226 360.819 363.901C363.087 368.576 365.805 373.751 366.858 375.401C367.912 377.051 369.095 379.076 369.488 379.901C369.88 380.726 371.46 383.266 372.999 385.546C374.537 387.826 375.796 390 375.796 390.377C375.796 390.754 377.449 393.613 379.468 396.732C385.03 405.318 403.914 423.646 420.633 436.686C423.654 439.043 426.615 441.552 427.211 442.261C427.808 442.971 430.879 445.706 434.035 448.339C437.192 450.972 439.528 453.525 439.226 454.013C438.925 454.502 437.348 454.901 435.723 454.901C434.098 454.901 431.987 455.326 431.032 455.846C430.077 456.365 426.146 457.265 422.296 457.844C413.288 459.2 397.704 462.939 390.796 465.401C388.871 466.087 385.271 467.176 382.796 467.821C375.139 469.815 372.486 470.654 366.796 472.88C358.524 476.116 353.485 477.53 351.623 477.137C349.013 476.586 346.955 472.62 346.239 466.761C345.878 463.813 344.956 459.473 344.19 457.116C343.423 454.759 342.796 450.798 342.796 448.313C342.796 445.829 342.155 440.782 341.372 437.098C340.589 433.415 339.434 420.951 338.806 409.401C337.856 391.953 337.928 384.257 339.231 363.901C340.093 350.426 341.229 337.376 341.754 334.901C342.279 332.426 342.728 328.488 342.752 326.151C342.776 323.814 343.246 321.901 343.796 321.901C344.346 321.901 344.796 322.936 344.796 324.201ZM155.179 342.151C156.197 346.689 157.653 352.098 158.413 354.171C159.174 356.245 159.796 359.321 159.796 361.007C159.796 362.693 160.447 366.847 161.243 370.237C166.749 393.7 166.745 434.99 161.234 454.489C160.443 457.287 159.796 460.848 159.796 462.401C159.796 467.34 156.606 475.827 154.497 476.496C152.65 477.082 136.664 473.931 130.296 471.726C128.646 471.154 125.48 470.371 123.259 469.985C121.039 469.599 118.566 468.877 117.764 468.381C116.961 467.885 114.278 467.157 111.8 466.764C107.599 466.096 105.742 465.671 94.5461 462.818C92.2081 462.222 88.8291 461.498 87.0371 461.207C81.3161 460.282 81.3191 460.277 94.7721 449.403C100.801 444.53 121.974 423.244 124.502 419.515C126.035 417.252 127.571 415.176 127.915 414.901C128.258 414.626 129.754 412.151 131.239 409.401C132.724 406.651 135.032 402.418 136.367 399.994C137.703 397.57 138.799 395.095 138.802 394.494C138.806 393.893 139.394 392.276 140.109 390.901C143.101 385.15 148.786 364.357 148.807 359.088C148.813 357.61 149.488 354.192 150.307 351.492C151.126 348.792 151.796 343.73 151.796 340.242C151.796 336.754 152.141 333.901 152.562 333.901C152.983 333.901 154.161 337.613 155.179 342.151Z" fill="black"/>
</svg>
