<svg width="515" height="636" viewBox="0 0 515 636" fill="none" xmlns="http://www.w3.org/2000/svg">
<path fill-rule="evenodd" clip-rule="evenodd" d="M236.194 0.408615C234.275 0.673201 232.254 1.24031 231.703 1.66864C231.152 2.09697 229.354 2.74995 227.707 3.12037C222.776 4.22664 210.325 10.7864 208.325 13.3304C207.299 14.6354 206.044 15.7027 205.536 15.7027C204.535 15.7027 199.713 21.4347 197.212 25.6002C196.358 27.021 194.674 31.1355 193.469 34.7429C191.568 40.433 191.283 43.4143 191.321 57.2077C191.345 65.956 191.799 75.1347 192.33 77.6058C192.862 80.0769 193.747 85.0192 194.296 88.5886C195.511 96.4723 198.141 108.326 199.282 111.053C199.741 112.152 200.402 114.781 200.751 116.895C201.1 119.01 202.106 122.38 202.988 124.384C207.209 133.992 208.487 136.546 209.329 137.066C210.923 138.051 210.424 160.599 208.737 163.835C207.917 165.408 207.246 167.279 207.246 167.993C207.246 170.482 198.288 177.198 192.022 179.405C188.594 180.615 184.313 182.241 182.51 183.021C180.708 183.801 178.238 184.442 177.021 184.445C175.804 184.449 173.641 185.062 172.211 185.807C170.782 186.553 167.536 187.475 164.998 187.855C162.46 188.237 160.159 188.912 159.883 189.357C159.609 189.802 157.558 190.459 155.325 190.816C153.093 191.173 150.501 191.853 149.564 192.327C148.628 192.802 145.167 194.22 141.873 195.478C134.886 198.149 128.951 201.69 125.374 205.322C121.994 208.755 116.422 217.15 116.422 218.813C116.422 219.542 115.749 220.697 114.925 221.381C114.102 222.065 113.428 223.708 113.428 225.033C113.428 226.358 112.807 228.437 112.049 229.653C111.29 230.869 110.376 233.843 110.017 236.263C109.657 238.681 109.043 241.152 108.651 241.754C106.946 244.375 101.839 276.147 98.5251 304.75C97.8893 310.242 96.8613 317.43 96.2405 320.725C95.6197 324.02 94.7734 329.636 94.3602 333.206C93.2393 342.9 90.3978 355.619 87.3348 364.657C86.7759 366.304 85.8776 369.142 85.3366 370.962C84.0921 375.156 76.4848 389.868 72.5285 395.732C70.8697 398.19 69.5133 400.425 69.5133 400.698C69.5133 400.972 66.2007 405.555 62.1516 410.882C55.2699 419.936 44.6974 431.053 42.9668 431.053C42.5466 431.053 38.4136 433.637 33.7836 436.794C29.1535 439.952 24.3488 443.095 23.1073 443.779C21.8657 444.464 17.3993 448.442 13.1825 452.62C-1.56992 467.235 -3.21873 478.459 7.42764 491.778C10.4129 495.512 11.0756 497.389 12.3621 505.756C16.1497 530.38 22.8767 536.466 75.5017 562.875C97.562 573.946 103.606 576.825 104.788 576.825C105.405 576.825 108.612 578.108 111.915 579.675C126.876 586.777 131.421 588.806 132.374 588.806C132.936 588.806 135.072 589.704 137.121 590.803C139.169 591.901 141.414 592.8 142.108 592.8C143.606 592.8 143.802 595.41 142.372 596.294C141.823 596.634 141.374 598.011 141.374 599.357C141.374 600.702 140.027 603.664 138.38 605.938C135.9 609.363 135.386 611.035 135.386 615.674C135.386 620.283 135.833 621.758 137.911 624C139.299 625.497 141.657 626.98 143.151 627.295C144.644 627.608 146.645 628.288 147.598 628.803C151.664 631.005 174.392 628.872 207.745 623.16C233.913 618.679 238.259 618.855 261.729 625.343C264.521 626.114 267.946 626.746 269.338 626.746C270.73 626.746 273.779 627.42 276.113 628.244C278.446 629.068 281.892 629.742 283.768 629.742C285.645 629.742 289.967 630.38 293.373 631.16C304.323 633.667 321.94 635.111 345.978 635.475C366.336 635.782 370.508 635.579 377.58 633.931C386.718 631.803 390.845 629.11 393.4 623.61C394.968 620.234 394.973 619.581 393.475 614.426C392.588 611.374 391.419 608.602 390.877 608.267C390.336 607.932 389.892 606.769 389.892 605.68C389.892 603.68 386.683 596.703 384.561 594.092C383.925 593.31 381.244 590.419 378.603 587.669C374.721 583.624 374.028 582.395 374.983 581.244C375.632 580.461 376.992 579.82 378.004 579.82C379.016 579.82 381.319 579.191 383.122 578.423C386.424 577.015 392.009 574.852 399.374 572.127C403.512 570.596 406.621 569.319 413.231 566.438C415.364 565.508 419.855 563.847 423.212 562.746C426.569 561.644 430.211 560.246 431.305 559.638C432.399 559.03 434.645 558.195 436.295 557.78C437.946 557.367 441.767 556.057 444.786 554.87C447.805 553.684 451.613 552.299 453.248 551.794C459.371 549.9 481.418 538.385 486.705 534.319C497.408 526.087 502.674 518.597 502.674 511.601C502.674 508.687 503.476 506.813 505.973 503.894C509.825 499.393 510.867 497.359 513.045 490.095C515.015 483.525 515.064 475.331 513.154 471.989C512.369 470.616 511.711 468.67 511.691 467.664C511.592 462.482 499.482 448.5 488.228 440.576C483.303 437.108 474.447 428.451 468.202 421C467.082 419.665 461.67 413.405 456.177 407.09C438.779 387.092 425.331 367.284 418.919 352.212C417.237 348.258 414.959 343.755 413.856 342.205C412.752 340.655 411.85 338.871 411.85 338.239C411.85 337.607 410.964 335.144 409.88 332.765C408.797 330.385 407.405 326.254 406.79 323.583C406.174 320.913 405.039 317.456 404.269 315.902C403.498 314.347 402.867 312.212 402.867 311.155C402.867 310.1 401.969 307.56 400.871 305.51C399.773 303.461 398.861 300.879 398.843 299.773C398.826 298.667 398.152 296.889 397.346 295.823C396.541 294.757 395.881 292.975 395.881 291.863C395.881 290.75 395.254 288.028 394.489 285.813C393.723 283.598 392.338 279.09 391.408 275.796C390.48 272.501 389.271 268.457 388.721 266.81C388.171 265.162 387.355 262.342 386.909 260.542C386.463 258.741 385.656 256.719 385.116 256.049C384.576 255.378 383.806 253.256 383.405 251.334C383.004 249.412 382.303 247.375 381.849 246.807C381.395 246.239 380.55 243.094 379.973 239.818C378.066 229.011 377.273 225.91 375.589 222.679C374.673 220.921 373.923 218.965 373.923 218.331C373.923 217.697 372.576 215.181 370.929 212.739C369.282 210.298 367.935 207.971 367.935 207.568C367.935 206.304 357.668 196.861 352.881 193.722C345.979 189.194 340.401 187.453 320.028 183.459C308.367 181.173 303.906 179.665 298.618 176.221C295.712 174.329 293.151 171.161 293.113 169.412C293.095 168.56 292.519 167.303 291.832 166.618C291.001 165.787 290.466 160.992 290.231 152.263L289.876 139.156L294.644 129.597C297.266 124.341 299.846 119.16 300.377 118.084C301.954 114.888 304.045 105.831 306.151 93.0816C309.291 74.0723 307.841 42.0335 303.373 31.6777C299.585 22.8984 297.842 19.8113 294.824 16.5334C288.914 10.1174 280.094 4.51619 273.769 3.1653C272.04 2.79488 270.025 2.00911 269.292 1.41704C267.913 0.303779 242.569 -0.468013 236.194 0.408615ZM268.128 9.65115C287.823 17.2722 295.493 27.004 298.289 47.9203C298.967 52.9893 299.51 61.4062 299.496 66.623C299.467 77.8464 297.638 98.8456 296.535 100.631C296.109 101.321 295.201 104.397 294.516 107.468C290.716 124.509 283.205 135.638 269.229 144.932C258.966 151.757 248.266 152.731 235.691 147.985C232.947 146.949 230.476 145.854 230.202 145.55C229.14 144.379 223.255 140.506 222.507 140.486C220.521 140.432 211.251 124.683 211.243 121.346C211.241 120.418 210.815 119.396 210.298 119.077C209.781 118.756 209.047 116.418 208.666 113.879C208.285 111.34 207.364 108.093 206.619 106.663C205.873 105.234 205.262 102.492 205.261 100.57C205.26 98.6479 204.619 95.0535 203.835 92.5824C201.687 85.807 199.254 65.3969 199.253 54.1425C199.252 40.1444 202.439 30.817 209.742 23.4466C216.319 16.808 223.2 12.942 232.61 10.6007C234.759 10.0665 237.229 9.19886 238.1 8.67268C240.423 7.27088 263.957 8.03768 268.128 9.65115ZM282.101 157.457C282.101 168.373 284.276 174.108 290.739 180.232C297.611 186.745 307.107 190.538 321.026 192.33C330.576 193.56 346.91 198.642 347.807 200.663C347.991 201.075 348.708 201.412 349.402 201.412C351.504 201.412 361.434 212.561 364.075 217.886C365.438 220.632 367.335 225.574 368.291 228.869C369.248 232.164 370.64 236.208 371.383 237.855C373.323 242.152 375.461 249.633 377.379 258.822C378.295 263.215 379.504 268.158 380.065 269.805C380.626 271.452 381.46 274.316 381.918 276.167C382.376 278.019 383.235 280.019 383.826 280.61C384.418 281.202 384.902 282.436 384.902 283.354C384.902 285.433 388.437 296.69 390.413 300.907C391.225 302.638 391.889 304.576 391.889 305.213C391.889 307.392 395.08 316.726 397.977 323.017C399.569 326.473 400.871 329.774 400.871 330.351C400.871 330.928 401.467 332.593 402.195 334.05C402.923 335.508 404.271 338.197 405.189 340.026C406.108 341.855 406.86 344.609 406.86 346.145C406.86 347.68 407.533 349.495 408.357 350.179C409.18 350.863 409.854 351.993 409.854 352.691C409.854 354.32 419.221 372.407 422.772 377.636C433.97 394.125 439.351 400.911 456.264 419.879C462.851 427.267 469.588 434.906 471.235 436.856C475.607 442.033 479.541 445.607 482.554 447.139C485.632 448.703 493.617 454.824 495.434 457.012C500.035 462.55 503.588 469.23 504.64 474.318C506.714 484.348 503.218 497.132 497.378 500.874C495.395 502.144 493.854 500.832 484.544 489.954L479.888 484.514L472.194 484.444C464.826 484.378 464.378 484.238 461.629 481.161C460.05 479.394 458.748 476.944 458.735 475.717C458.706 472.881 455.406 460.61 453.424 455.963C451.803 452.164 444.293 444.483 433.807 435.9C430.239 432.98 427.095 430.332 426.821 430.015C426.546 429.699 422.504 426.354 417.838 422.583C408.374 414.931 386.898 393.864 386.898 392.229C386.898 391.65 384.725 387.456 382.07 382.909C379.414 378.361 375.537 371.149 373.456 366.882C371.375 362.615 369.281 358.882 368.803 358.586C368.326 358.291 367.935 357.259 367.935 356.294C367.935 355.328 366.588 351.903 364.941 348.682C363.294 345.461 361.947 342.19 361.947 341.414C361.947 340.638 361.341 338.811 360.601 337.353C358.844 333.893 356.584 328.907 353.968 322.722C352.807 319.977 351.456 316.831 350.967 315.733C346.406 305.5 345.905 303.5 346.447 297.698C346.751 294.438 347.52 286.275 348.154 279.559C349.06 269.989 349.043 266.762 348.078 264.645L346.849 261.944L344.508 264.876C342.852 266.952 341.973 269.702 341.5 274.298C341.133 277.867 340.194 282.713 339.413 285.066C338.632 287.419 337.986 292.137 337.978 295.55C337.97 298.962 337.315 303.552 336.525 305.749C335.733 307.945 335.067 312.746 335.043 316.417C335.019 320.088 334.533 324.318 333.963 325.817C333.393 327.316 332.506 334.647 331.991 342.107C331.475 349.567 330.553 359.265 329.943 363.658C328.659 372.892 329.239 408.381 330.874 420.569C331.933 428.467 333.385 440.218 334.911 453.235C335.343 456.923 336.152 460.518 336.708 461.222C337.264 461.926 338.006 465.383 338.356 468.903C339.149 476.863 341.383 480.808 346.798 483.806C350.964 486.115 351.072 486.122 356.728 484.451C363.342 482.498 363.926 482.287 365.939 481.114C367.64 480.124 372.983 478.2 377.417 476.981C379.063 476.529 381.758 475.708 383.405 475.158C385.052 474.608 388.869 473.472 391.889 472.634C394.908 471.796 399.848 470.338 402.867 469.394C408.523 467.625 411.092 467.093 426.162 464.574C431.014 463.763 435.583 462.601 436.314 461.994C437.046 461.387 439.813 461.029 442.463 461.197C447.25 461.503 447.285 461.53 447.889 465.499C448.222 467.695 449.002 471.514 449.62 473.985C450.237 476.457 450.986 479.726 451.283 481.249C451.58 482.774 453.608 485.806 455.79 487.989C459.717 491.917 459.833 491.957 467.333 491.957H474.911L480.302 497.199C483.267 500.082 485.697 502.836 485.701 503.319C485.704 503.802 487.693 506.048 490.119 508.311L494.533 512.425L492.587 516.666C491.33 519.405 488.445 522.645 484.431 525.822C478.493 530.524 463.303 538.71 453.769 542.347C451.298 543.289 447.93 544.663 446.283 545.401C444.636 546.138 439.92 547.864 435.803 549.237C426.368 552.383 421.869 553.944 419.335 554.955C418.237 555.392 414.869 556.719 411.85 557.904C403.926 561.012 402.854 561.454 397.877 563.654C395.407 564.746 390.567 566.587 387.123 567.745C383.677 568.903 380.084 570.244 379.138 570.724C378.191 571.204 375.396 572.117 372.925 572.752C370.455 573.387 365.964 574.591 362.945 575.428C353.446 578.061 335.611 580.818 328.088 580.818C323.394 580.818 318.433 580.228 303.56 577.903C287.861 575.449 271.502 569.941 261.452 563.728L258.071 561.637L261.599 559.746C263.539 558.706 265.69 557.852 266.378 557.849C267.831 557.844 278.844 553.458 279.796 552.507C280.149 552.153 281.234 551.864 282.207 551.864C283.18 551.864 288.159 549.777 293.27 547.226C298.38 544.676 304.358 541.706 306.554 540.625C313.365 537.275 321.451 532.702 323.101 531.268C323.967 530.514 325.371 529.898 326.222 529.898C327.072 529.898 328.327 529.224 329.01 528.4C329.694 527.577 330.647 526.903 331.13 526.903C331.612 526.903 338.182 523.221 345.729 518.723C358.693 510.996 381.471 498.946 383.117 498.946C383.532 498.946 386.536 497.655 389.791 496.078C393.046 494.5 397.301 492.912 399.246 492.546C401.192 492.181 404.037 491.229 405.57 490.429C407.102 489.629 410.153 488.973 412.349 488.971C416.935 488.967 429.714 486.127 431.551 484.702C438.328 479.449 405.192 481.018 393.235 486.517C391.505 487.313 389.426 487.964 388.616 487.964C387.805 487.964 386.584 488.638 385.9 489.461C385.216 490.285 383.702 490.967 382.535 490.977C381.366 490.987 377.981 492.335 375.011 493.972C372.042 495.61 369.254 496.95 368.817 496.95C368.38 496.95 365.826 498.246 363.14 499.829C360.455 501.414 357.26 503.026 356.04 503.413C354.185 504.003 337.027 513.638 332.005 516.911C331.181 517.447 329.16 518.547 327.513 519.354C325.866 520.16 322.273 522.153 319.529 523.782C314.642 526.68 288.518 539.789 282.6 542.311C280.954 543.013 278.032 544.266 276.109 545.096C274.186 545.926 271.159 546.924 269.383 547.314C267.607 547.704 265.899 548.438 265.585 548.945C265.273 549.452 263.796 549.867 262.303 549.867C260.811 549.867 258.688 550.499 257.586 551.272C256.483 552.043 253.489 552.99 250.932 553.373C246.587 554.025 245.578 553.697 235.56 548.368C229.662 545.232 223.134 541.591 221.052 540.276C218.97 538.961 216.957 537.886 216.577 537.886C216.197 537.886 215.178 537.261 214.312 536.498C213.444 535.735 208.244 532.752 202.755 529.868C197.266 526.985 192.101 524.1 191.277 523.457C190.454 522.814 187.31 521.03 184.291 519.49C178.56 516.57 164.918 509.425 162.333 507.99C161.51 507.534 158.366 506.135 155.347 504.883C152.328 503.631 147.049 501.334 143.617 499.778C140.184 498.223 136.565 496.95 135.573 496.95C134.582 496.95 132.899 496.29 131.834 495.484C130.769 494.677 128.773 494.001 127.401 493.98C126.029 493.959 123.619 493.27 122.048 492.451C120.475 491.63 118.123 490.959 116.822 490.959C115.52 490.959 112.442 490.421 109.981 489.762C104.967 488.42 103.408 489.065 105.824 491.482C106.712 492.371 107.44 493.516 107.44 494.025C107.44 494.535 108.326 494.953 109.409 494.953C110.493 494.953 113.299 495.8 115.647 496.836C125.425 501.149 127.564 501.942 129.431 501.942C130.51 501.942 131.393 502.281 131.393 502.697C131.393 503.491 140.48 507.932 142.107 507.932C142.63 507.932 145.036 509.05 147.455 510.415C149.875 511.781 152.527 513.193 153.351 513.553C156.451 514.907 171.036 522.292 176.522 525.286C179.66 527 185.499 530.137 189.497 532.257C193.495 534.379 199.296 537.637 202.387 539.496C205.478 541.356 208.509 542.878 209.124 542.878C209.738 542.878 210.241 543.297 210.241 543.809C210.241 544.321 211.251 545.06 212.486 545.453C213.721 545.844 216.528 547.326 218.724 548.745C224.912 552.742 226.526 553.693 229.065 554.833C230.361 555.416 233.28 557.163 235.553 558.717C243.665 564.263 262.073 574.29 271.622 578.361C276.813 580.576 290.732 584.514 296.573 585.421C298.22 585.678 303.421 586.584 308.13 587.437C318.352 589.288 344.376 588.793 355.459 586.537C360.12 585.589 363.07 585.432 364.324 586.068C369.301 588.592 381.908 604.458 381.908 608.198C381.908 609.068 382.806 611.456 383.904 613.506C386.48 618.315 386.419 619.92 383.557 622.61C381.847 624.217 379.081 625.1 373.327 625.876C360.564 627.595 340.207 628.063 330.008 626.872C324.794 626.262 315.811 625.321 310.047 624.78C296.808 623.536 282.978 621.434 281.349 620.416C280.661 619.987 277.068 619.248 273.364 618.775C269.661 618.302 264.722 617.43 262.39 616.839C260.057 616.248 256.238 615.278 253.906 614.684C251.572 614.091 247.419 613.248 244.674 612.81C241.929 612.373 238.336 611.549 236.689 610.98C233.807 609.984 227.714 608.278 218.225 605.813C215.755 605.172 211.081 604.225 207.838 603.708C204.597 603.191 201.453 602.38 200.852 601.904C200.252 601.428 197.515 600.715 194.771 600.321C192.026 599.925 189.331 599.246 188.782 598.812C188.233 598.378 185.763 597.545 183.293 596.961C173.856 594.732 169.73 593.507 167.17 592.179C165.713 591.422 163.616 590.803 162.51 590.803C161.404 590.803 159.227 590.175 157.673 589.407C156.119 588.639 152.153 587.201 148.86 586.212C143.504 584.602 138.233 582.431 133.154 579.74C132.201 579.235 130.698 578.821 129.814 578.821C128.931 578.821 127.016 578.178 125.559 577.393C124.102 576.606 120.889 575.059 118.419 573.955C75.2612 554.656 38.8547 534.934 29.8522 525.975C26.1344 522.275 24.5594 519.664 22.8198 514.32C21.5872 510.532 20.5861 505.299 20.5941 502.691C20.6081 498.011 20.651 497.948 23.8518 497.937C32.9292 497.907 43.2532 492.468 49.555 484.393C50.3794 483.337 52.0951 481.124 53.3676 479.477C55.6921 476.467 60.3022 473.242 66.2017 470.5C67.9483 469.688 69.659 468.567 70.0034 468.01C70.7729 466.764 78.5897 466.76 83.9853 468.003C86.181 468.509 90.8969 469.59 94.465 470.407C100.598 471.81 107.199 473.423 117.42 476.016C119.891 476.643 123.933 477.793 126.403 478.571C128.873 479.349 131.889 479.984 133.106 479.981C134.323 479.978 136.793 480.602 138.595 481.368C142.044 482.833 152.452 484.968 156.139 484.968C159.705 484.968 163.976 480.003 166.237 473.233C167.384 469.798 168.322 465.896 168.322 464.561C168.322 463.226 168.815 460.869 169.417 459.323C170.019 457.778 170.891 453.143 171.355 449.025C171.818 444.906 172.645 439.29 173.194 436.544C174.489 430.064 174.518 391.952 173.233 386.123C172.688 383.652 171.841 378.485 171.35 374.641C170.859 370.797 169.492 363.384 168.312 358.167C167.132 352.95 165.55 345.761 164.797 342.192C164.043 338.622 162.753 333.006 161.93 329.711C161.107 326.416 159.936 321.474 159.329 318.728C158.722 315.983 157.755 312.388 157.179 310.741C156.604 309.094 155.784 303.927 155.358 299.259C154.691 291.952 153.238 281.658 151.724 273.515C151.168 270.53 146.619 268.292 145.31 270.361C144.095 272.282 144.227 289.491 145.504 295.764C147.467 305.403 147.673 317.548 145.959 322.598C145.084 325.176 144.368 330.161 144.368 333.675C144.368 337.19 143.918 341.248 143.368 342.696C142.818 344.143 141.937 348.777 141.409 352.995C140.881 357.212 139.948 362.685 139.335 365.156C137.065 374.311 135.17 380.713 133.868 383.627C133.131 385.274 132.243 387.634 131.893 388.869C131.049 391.857 122.873 406.588 119.587 411.041C108.241 426.416 71.8628 458.303 58.0186 465.008C53.177 467.352 46.4091 473.507 41.6034 479.936C36.9315 486.186 32.8184 488.06 23.6432 488.12C14.3622 488.181 13.5478 487.615 10.5426 479.019C9.05349 474.758 9.07544 474.229 10.9129 469.996C11.9858 467.523 13.954 464.041 15.2864 462.259C17.7337 458.985 29.0048 449.535 33.559 446.939C34.9184 446.164 38.0154 444.07 40.4397 442.285C42.865 440.501 45.2733 439.04 45.7933 439.04C47.6896 439.04 62.6676 424.466 67.3405 418.073C68.7448 416.151 71.6053 412.29 73.6962 409.494C75.7872 406.698 77.4978 404.067 77.4978 403.648C77.4978 403.227 78.8452 401.182 80.492 399.103C82.1388 397.023 83.4862 394.599 83.4862 393.717C83.4862 392.835 83.8914 392.114 84.3865 392.114C84.8815 392.114 85.7738 390.878 86.3686 389.368C86.9635 387.858 87.8398 385.948 88.3159 385.125C91.2262 380.093 92.9199 375.473 97.2815 360.663C100.611 349.358 105.423 323.23 105.479 316.147C105.498 313.722 106.156 308.819 106.941 305.25C107.725 301.68 108.389 296.064 108.415 292.769C108.441 289.474 109.125 284.307 109.935 281.287C110.745 278.267 111.414 274.062 111.42 271.945C111.427 269.827 112.147 264.885 113.02 260.962C116.3 246.227 119.373 234.312 120.376 232.437C120.946 231.37 121.413 229.852 121.413 229.062C121.413 227.555 124.603 220.239 126.684 216.976C131.212 209.871 141.079 203.887 154.848 199.894C158.142 198.94 161.959 197.705 163.331 197.15C164.704 196.595 167.399 195.799 169.32 195.379C171.241 194.961 174.161 194.158 175.807 193.595C177.454 193.032 182.17 191.576 186.287 190.36C198.154 186.856 207.712 181.904 211.262 177.422C215.347 172.261 218.225 163.848 218.225 157.065C218.225 154.064 218.691 151.32 219.26 150.968C219.83 150.616 223.086 151.79 226.496 153.577C241.456 161.416 257.009 161.904 269.369 154.922C271.705 153.602 274.534 152.112 275.655 151.611C276.776 151.11 278.286 149.984 279.011 149.109C281.332 146.313 282.101 148.393 282.101 157.457ZM344.979 323.521C344.979 324.784 345.464 326.302 346.055 326.894C346.646 327.485 347.51 329.485 347.973 331.337C349.006 335.468 354.41 350.244 355.824 352.804C356.392 353.832 358.708 358.491 360.971 363.159C363.235 367.827 365.946 372.994 366.995 374.641C368.045 376.288 369.366 378.535 369.931 379.633C370.496 380.731 371.845 382.978 372.929 384.625C374.013 386.273 375.202 388.295 375.572 389.118C380.158 399.332 398.875 418.772 420.271 435.546C423.073 437.742 426.26 440.438 427.353 441.536C428.446 442.635 431.483 445.284 434.103 447.425C441.085 453.132 440.957 453.234 422.829 456.422C413.267 458.103 398.898 461.652 391.39 464.185C389.743 464.741 386.823 465.564 384.902 466.015C380.348 467.082 371.965 469.739 369.432 470.917C365.2 472.885 354.838 475.982 352.484 475.982C349.268 475.982 347.152 472.676 346.373 466.432C346.033 463.723 345.133 459.58 344.37 457.227C343.607 454.873 342.976 450.83 342.968 448.241C342.96 445.652 342.32 440.837 341.544 437.543C338.869 426.18 337.656 392.978 338.951 366.653C339.6 353.474 340.525 340.894 341.007 338.697C341.489 336.501 342.193 331.67 342.571 327.964C342.949 324.258 343.646 321.225 344.119 321.225C344.592 321.225 344.979 322.258 344.979 323.521ZM154.68 336.451C155.565 341.669 158.03 351.443 159.229 354.488C159.839 356.033 160.337 359.009 160.337 361.101C160.337 363.193 161.011 366.815 161.834 369.15C162.658 371.484 163.331 375.379 163.331 377.804C163.331 380.229 164.026 385.577 164.875 389.688C167.502 402.415 166.044 434.966 162.127 451.021C161.524 453.493 160.714 457.986 160.325 461.006C159.46 467.749 157.191 474.047 155.169 475.323C153.684 476.261 137.844 473.347 130.894 470.858C129.248 470.268 125.768 469.411 123.162 468.951C120.556 468.492 117.878 467.778 117.21 467.366C116.542 466.953 114.184 466.281 111.968 465.872C108.136 465.166 104.829 464.385 95.2135 461.912C92.88 461.312 89.288 460.591 87.229 460.31C85.171 460.028 83.4862 459.26 83.4862 458.602C83.4862 457.945 87.4166 454.211 92.2193 450.308C101.985 442.368 120.533 423.946 125.678 417.075C127.529 414.603 130.119 410.56 131.434 408.089C132.749 405.617 134.326 402.922 134.937 402.098C135.548 401.274 137.046 398.129 138.266 395.109C139.486 392.089 140.892 388.719 141.392 387.621C143.713 382.528 146.226 373.723 147.822 365.102C148.782 359.915 150.194 353.17 150.959 350.113C151.726 347.057 152.353 342.003 152.353 338.881C152.353 332.723 153.794 331.218 154.68 336.451ZM158.341 598.501C159.714 598.748 162.184 599.531 163.831 600.239C168.082 602.068 176.158 604.521 180.559 605.322C182.624 605.698 184.559 606.404 184.86 606.891C185.16 607.378 186.718 607.776 188.322 607.776C189.925 607.776 192.93 608.412 195 609.19C197.069 609.968 200.726 610.83 203.125 611.108C207.483 611.612 210.197 613.145 208.946 614.396C208.583 614.76 204.795 615.368 200.529 615.747C196.265 616.126 191.202 616.933 189.281 617.539C183.117 619.486 154.548 621.027 148.61 619.734C143.811 618.689 143.37 618.359 143.37 615.804C143.37 614.269 144.074 612.429 144.933 611.715C146.979 610.017 149.359 605.361 149.359 603.056C149.359 600.063 152.333 596.563 154.203 597.353C155.106 597.736 156.969 598.252 158.341 598.501Z" fill="black"/>
</svg>
